<svg xmlns="http://www.w3.org/2000/svg" version="1.1" xmlns:xlink="http://www.w3.org/1999/xlink" xmlns:svgjs="http://svgjs.dev/svgjs" width="1000" height="237" viewBox="0 0 1000 237"><g transform="matrix(1,0,0,1,-0.6060466627133678,-0.10231497955592772)"><svg viewBox="0 0 396 94" data-background-color="#ffffff" preserveAspectRatio="xMidYMid meet" height="237" width="1000" xmlns="http://www.w3.org/2000/svg" xmlns:xlink="http://www.w3.org/1999/xlink"><g id="tight-bounds" transform="matrix(1,0,0,1,0.23999447843448252,0.04058062480277158)"><svg viewBox="0 0 395.52 93.91883875039444" height="93.91883875039444" width="395.52"><g><svg viewBox="0 0 395.52 93.91883875039444" height="93.91883875039444" width="395.52"><g><svg viewBox="0 0 395.52 93.91883875039444" height="93.91883875039444" width="395.52"><g id="textblocktransform"><svg viewBox="0 0 395.52 93.91883875039444" height="93.91883875039444" width="395.52" id="textblock"><g><svg viewBox="0 0 395.52 93.91883875039444" height="93.91883875039444" width="395.52"><g transform="matrix(1,0,0,1,0,0)"><svg width="395.52" viewBox="3.049999952316284 -36.25 154.72999572753906 36.7400016784668" height="93.91883875039444" data-palette-color="#000000"><path d="M20.14-32.25L20.14-32.25Q14.38-32.25 11.08-28.39 7.79-24.54 7.79-17.85L7.79-17.85Q7.79-10.94 10.99-7.19 14.18-3.44 20.09-3.44L20.09-3.44Q23.9-3.44 28.66-4.86L28.66-4.86 28.66-0.95Q26.39-0.12 24.29 0.18 22.19 0.49 19.46 0.49L19.46 0.49Q11.57 0.49 7.31-4.31 3.05-9.11 3.05-17.9L3.05-17.9Q3.05-23.41 5.09-27.56 7.13-31.71 11.02-33.96 14.92-36.21 20.19-36.21L20.19-36.21Q25.85-36.21 30.05-34.11L30.05-34.11 28.25-30.3Q23.97-32.25 20.14-32.25ZM67.11-17.9L67.11-17.9Q67.11-9.33 62.78-4.42 58.44 0.49 50.66 0.49L50.66 0.49Q42.77 0.49 38.46-4.33 34.15-9.16 34.15-17.94L34.15-17.94Q34.15-26.66 38.44-31.46 42.72-36.25 50.71-36.25L50.71-36.25Q58.47-36.25 62.79-31.38 67.11-26.51 67.11-17.9ZM38.89-17.9L38.89-17.9Q38.89-10.82 41.89-7.1 44.89-3.39 50.66-3.39L50.66-3.39Q56.39-3.39 59.37-7.06 62.35-10.72 62.35-17.9L62.35-17.9Q62.35-25.05 59.4-28.67 56.44-32.3 50.71-32.3L50.71-32.3Q44.89-32.3 41.89-28.63 38.89-24.95 38.89-17.9ZM95.23-9.55L95.23-9.55Q95.23-4.88 91.87-2.2 88.5 0.49 82.49 0.49L82.49 0.49Q76.14 0.49 72.68-1.2L72.68-1.2 72.68-5.49Q74.95-4.52 77.64-3.96 80.34-3.39 82.69-3.39L82.69-3.39Q86.69-3.39 88.72-4.93 90.74-6.47 90.74-9.16L90.74-9.16Q90.74-10.94 90.01-12.08 89.28-13.23 87.56-14.23 85.83-15.23 82.34-16.5L82.34-16.5Q77.39-18.31 75.26-20.76 73.14-23.22 73.14-27.1L73.14-27.1Q73.14-31.27 76.28-33.74 79.41-36.21 84.54-36.21L84.54-36.21Q89.89-36.21 94.38-34.2L94.38-34.2 92.99-30.35Q88.4-32.25 84.44-32.25L84.44-32.25Q81.27-32.25 79.47-30.88 77.68-29.52 77.68-27.05L77.68-27.05Q77.68-25.29 78.38-24.13 79.07-22.97 80.62-22.02 82.17-21.07 85.49-19.85L85.49-19.85Q89.47-18.38 91.43-17 93.38-15.63 94.31-13.83 95.23-12.04 95.23-9.55ZM106.93-31.81L106.93-18.55 112.27-18.55Q116.62-18.55 118.62-20.26 120.62-21.97 120.62-25.34L120.62-25.34Q120.62-28.71 118.6-30.26 116.57-31.81 112.03-31.81L112.03-31.81 106.93-31.81ZM114.03-14.75L106.93-14.75 106.93 0 102.43 0 102.43-35.69 112.27-35.69Q118.91-35.69 122.1-33.17 125.29-30.64 125.29-25.56L125.29-25.56Q125.29-18.46 118.13-15.99L118.13-15.99 127.92 0 122.67 0 114.03-14.75ZM145.89-18.7L157.78 0 152.68 0 143.23-15.5 133.63 0 128.87 0 140.74-18.6 129.63-35.69 134.63-35.69 143.37-21.7 152.19-35.69 156.92-35.69 145.89-18.7Z" opacity="1" transform="matrix(1,0,0,1,0,0)" fill="#000000" class="undefined-text-0" data-fill-palette-color="primary" id="text-0"></path></svg></g></svg></g></svg></g></svg></g></svg></g><defs></defs></svg><rect width="395.52" height="93.91883875039444" fill="none" stroke="none" visibility="hidden"></rect></g></svg></g></svg>